 <svg  id="Layer_1" xmlns="http://www.w3.org/2000/svg" xmlns:xlink="http://www.w3.org/1999/xlink" x="0px" y="0px"
        viewBox="0 0 60.58 41.75" enable-background="new 0 0 60.58 41.75" xml:space="preserve">
   <g>
       <path fill="#56565A" d="M29.25,5.8c-0.09-0.46,0.31-0.67,0.3-0.81c-0.01-0.15,0.02-0.39,0.02-0.47c-0.01-0.04-0.04-0.01-0.07,0.01
           c-0.05,0.03-0.11,0.05-0.11-0.05c-0.01-0.16,0.01-0.31,0.11-0.43c0.03-0.04,0.06-0.2,0.15-0.3c0.22-0.26,0.85-0.2,0.85-0.2
           c0.07-0.08-0.63-0.06-0.63-0.06s0.09-0.05,0.11-0.12c0.02-0.08-0.02-0.11-0.02-0.11l0.09-0.13c0,0-0.09-0.2-0.14-0.23
           c-0.05-0.02-0.01-0.35-0.01-0.35s-0.13,0.01-0.12-0.01c0.04-0.13,0.09-0.16,0.09-0.16s-0.1-0.1-0.15-0.15
           c-0.05-0.05-0.03-0.13-0.03-0.13l-0.12-0.16c0,0-0.02-0.36-0.01-0.46c0.01-0.09,0.13-0.15,0.31,0.04c0.04,0.04,0.12-0.06,0.12-0.06
           l-0.06-0.09l-0.34-0.1c0,0,0.02-0.08,0.04-0.19c0.01-0.11,0.09-0.2,0.15-0.24c0.01-0.01,0.04-0.01,0.06-0.02
           c-0.06-0.01-0.21-0.02-0.25,0.01c-0.06,0.04-0.15,0.13-0.15,0.24c-0.01,0.11,0.01,0.32,0.01,0.32l-0.02,0.38l0.03,0.1l0.04,0.23
           c0,0,0.08,0.04,0.13,0.09c0.05,0.05,0.05,0.08,0.05,0.08s0.02,0.15-0.06,0.27c-0.08,0.12,0.01,0.25,0.01,0.25s0.12,0.13,0.17,0.15
           c0.05,0.02,0.06,0.19,0.06,0.19l-0.09,0.13c0,0-0.01,0.03-0.02,0.11c-0.02,0.07-0.07,0.13-0.07,0.13s-0.09,0.05-0.22,0.19
           c-0.08,0.1-0.03,0.22-0.15,0.38c-0.09,0.12-0.11,0.27-0.11,0.43c0.01,0.19,0.15,0.25,0.16,0.33c0.01,0.08-0.01,0.28-0.01,0.28
           s-0.65,0.37-0.79,0.94L29.25,5.8z"/>
       <path fill="#56565A" d="M31.06,5.08c0,0-0.04-0.13,0.01-0.27c0.04-0.14,0.12-0.18,0.15-0.36c0.02-0.13-0.04-0.39-0.12-0.47
           c-0.19-0.21-0.26-0.26-0.44-0.46c0,0,0.01-0.17,0.12-0.19c0.12-0.02,0.11-0.36,0.26-0.46c0.15-0.1,0.14-0.37,0.12-0.4l-0.01-0.01
           l-0.01-0.01c-0.02,0-0.04,0-0.06,0c-0.06,0.01-0.13,0.01-0.17-0.05C30.84,2.3,30.86,2,30.86,2s0.05-0.37-0.07-0.53
           c-0.12-0.15-0.29-0.38-0.29-0.38S30.41,1,30.36,0.99s-0.1-0.01-0.1-0.01s-0.07-0.07,0.01-0.11c0.06-0.03,0.08-0.08,0.09-0.12
           c0.03-0.1,0.04-0.19,0.04-0.19l-0.01-0.11c0,0-0.06-0.08-0.17-0.08c-0.03-0.01-0.01-0.05-0.06-0.06c0,0,0.23-0.12,0.23-0.2
           c0-0.04-0.07-0.01-0.13,0.01l-0.02-0.04l-0.06,0.01c-0.05-0.01,0.01-0.08,0.01-0.08l-0.07,0.03l-0.06,0.04L29.99,0
           c0,0,0.01,0.12-0.02,0.13c-0.04,0.01-0.11-0.01-0.11-0.01l-0.04,0.12l-0.21,0.08L29.6,0.42l-0.15,0.16c0,0-0.07,0.18,0,0.18
           c0.05,0,0.03-0.01,0.08-0.04c0.03-0.02,0.05-0.03,0.08-0.04c0.06-0.03,0.13-0.13,0.13-0.13l0.13-0.02V0.6V0.6l-0.01,0.06L29.84,0.8
           V0.8h-0.02c-0.03,0-0.05,0.01-0.06,0.02c-0.06,0.04-0.15,0.13-0.15,0.24c-0.01,0.11-0.03,0.2-0.03,0.2l0.34,0.1l0.05,0.09
           c0,0-0.08,0.1-0.12,0.06c-0.18-0.18-0.3-0.13-0.31-0.04c-0.01,0.09,0.01,0.46,0.01,0.46l0.12,0.16c0,0-0.02,0.08,0.03,0.13
           c0.05,0.05,0.15,0.15,0.15,0.15s-0.05,0.02-0.09,0.16c-0.01,0.03,0.12,0.02,0.12,0.02s-0.05,0.33,0.01,0.35
           c0.05,0.02,0.14,0.23,0.14,0.23l-0.09,0.13c0,0,0.04,0.04,0.02,0.11c-0.02,0.07-0.11,0.12-0.11,0.12s0.7-0.02,0.63,0.06
           c0,0-0.63-0.06-0.85,0.2c-0.08,0.1-0.11,0.26-0.15,0.3c-0.09,0.12-0.11,0.27-0.11,0.43c0.01,0.11,0.06,0.08,0.11,0.05
           c0.04-0.02,0.06-0.04,0.07-0.01c0.01,0.08-0.02,0.32-0.02,0.47c0.01,0.15-0.4,0.36-0.31,0.78l2.69,0.13
           C31.91,5.9,31.84,5.52,31.06,5.08z M29.91,4.96c-0.02,0.07-0.11,0.11-0.13,0.03S29.8,4.5,29.8,4.5c0.02-0.05,0.03-0.04,0.05-0.03
           c0.01,0.01,0.02,0.01,0.04,0.01C29.94,4.47,29.92,4.89,29.91,4.96z"/>
       <g>
           <path fill="#56565A" d="M16.82,28.02l0.28,0.16v0.09c0.78-0.05,1.57-0.09,2.35-0.13c0.05-0.01,0.11-0.02,0.16-0.04
               c0,0.01,0,0.02,0,0.02c3.68-0.19,7.36-0.29,11.02-0.29c4.24,0,8.49,0.13,12.74,0.39v-0.04l0.28-0.16
               c0.06-0.04,0.12-0.12,0.16-0.19c-0.64-0.34-1.59-0.63-2.74-0.88c-2.8-0.6-6.8-0.9-10.81-0.9s-8,0.3-10.81,0.9
               c-1.18,0.25-2.14,0.56-2.78,0.9C16.71,27.92,16.76,27.99,16.82,28.02z"/>
           <path fill="#56565A" d="M19.04,22.86l0.19,0.15v2.61c0.33-0.09,0.68-0.17,1.06-0.25c2.69-0.55,6.34-0.82,9.99-0.82
               s7.31,0.27,9.99,0.82c0.35,0.07,0.68,0.15,1.01,0.23v-2.6l0.19-0.15c0.13-0.11,0.25-0.31,0.3-0.46c0.01-0.01,0.01-0.02,0.01-0.04
               c-0.72-0.4-1.83-0.73-3.19-0.98c-2.31-0.44-5.31-0.66-8.3-0.66c-3,0-5.99,0.22-8.3,0.66c-1.39,0.26-2.52,0.6-3.24,1.01l0.01,0.01
               C18.79,22.55,18.9,22.76,19.04,22.86z M40.14,23.9c0-0.35,0-0.7,0-1.05c0-0.17,0.15-0.27,0.35-0.24c0.19,0.04,0.35,0.2,0.35,0.37
               c0,0.35,0,0.7,0,1.06c0,0.35,0,0.7,0,1.06c-0.23-0.05-0.46-0.09-0.69-0.13C40.14,24.61,40.14,24.25,40.14,23.9z M38.43,23.6
               c0-0.35,0-0.7,0-1.05c0-0.16,0.16-0.27,0.35-0.25c0.19,0.03,0.35,0.19,0.35,0.36c0,0.35,0,0.7,0,1.05s0,0.7,0,1.05
               c-0.23-0.04-0.46-0.08-0.69-0.12C38.43,24.3,38.43,23.95,38.43,23.6z M36.72,23.36c0-0.35,0-0.7,0-1.05
               c0-0.16,0.16-0.28,0.35-0.26c0.19,0.03,0.35,0.18,0.35,0.35c0,0.35,0,0.7,0,1.05s0,0.7,0,1.05c-0.23-0.04-0.46-0.06-0.69-0.09
               C36.72,24.06,36.72,23.7,36.72,23.36z M35.01,23.17c0-0.35,0-0.7,0-1.05c0-0.16,0.15-0.29,0.35-0.27
               c0.19,0.02,0.35,0.17,0.35,0.33c0,0.35,0,0.7,0,1.05s0,0.7,0,1.05c-0.23-0.02-0.46-0.05-0.69-0.07
               C35.01,23.87,35.01,23.52,35.01,23.17z M33.31,23.04c0-0.35,0-0.7,0-1.04c0-0.16,0.15-0.29,0.35-0.28
               c0.19,0.01,0.35,0.16,0.35,0.32c0,0.35,0,0.7,0,1.04c0,0.35,0,0.7,0,1.04c-0.23-0.02-0.46-0.03-0.69-0.05
               C33.31,23.74,33.31,23.39,33.31,23.04z M31.6,22.97c0-0.35,0-0.7,0-1.04c0-0.16,0.15-0.29,0.35-0.29
               c0.19,0.01,0.35,0.15,0.35,0.31c0,0.35,0,0.7,0,1.04c0,0.35,0,0.7,0,1.04c-0.23-0.01-0.46-0.02-0.69-0.03
               C31.6,23.66,31.6,23.31,31.6,22.97z M29.89,22.96c0-0.35,0-0.7,0-1.04c0-0.16,0.15-0.3,0.35-0.3l0,0c0.19,0,0.35,0.14,0.35,0.3
               c0,0.35,0,0.7,0,1.04c0,0.35,0,0.7,0,1.04c-0.23,0-0.46,0-0.69,0C29.89,23.65,29.89,23.3,29.89,22.96z M28.19,23
               c0-0.35,0-0.7,0-1.04c0-0.16,0.16-0.3,0.35-0.31c0.19-0.01,0.35,0.12,0.35,0.29c0,0.35,0,0.7,0,1.04c0,0.35,0,0.7,0,1.04
               c-0.23,0.01-0.46,0.02-0.69,0.03C28.19,23.69,28.19,23.34,28.19,23z M26.48,23.09c0-0.35,0-0.7,0-1.04c0-0.16,0.16-0.31,0.35-0.32
               c0.19-0.01,0.35,0.11,0.35,0.27c0,0.35,0,0.7,0,1.04c0,0.35,0,0.7,0,1.04c-0.23,0.02-0.46,0.03-0.69,0.05
               C26.48,23.79,26.48,23.44,26.48,23.09z M24.77,23.24c0-0.35,0-0.7,0-1.05c0-0.16,0.15-0.32,0.35-0.33
               c0.19-0.02,0.35,0.11,0.35,0.27c0,0.35,0,0.7,0,1.04c0,0.35,0,0.7,0,1.04c-0.23,0.02-0.46,0.04-0.69,0.07
               C24.77,23.94,24.77,23.59,24.77,23.24z M23.07,23.45c0-0.35,0-0.7,0-1.05c0-0.16,0.15-0.32,0.35-0.35
               c0.19-0.02,0.35,0.09,0.35,0.26c0,0.35,0,0.7,0,1.05s0,0.7,0,1.05c-0.23,0.03-0.46,0.06-0.69,0.09
               C23.07,24.15,23.07,23.8,23.07,23.45z M21.36,23.72c0-0.35,0-0.7,0-1.05c0-0.16,0.15-0.33,0.35-0.36
               c0.19-0.03,0.35,0.08,0.35,0.25c0,0.35,0,0.7,0,1.05c0,0.35,0,0.7,0,1.05c-0.23,0.04-0.46,0.08-0.69,0.12
               C21.36,24.42,21.36,24.07,21.36,23.72z M19.66,24.04c0-0.35,0-0.7,0-1.06c0-0.17,0.15-0.33,0.35-0.37
               c0.19-0.04,0.35,0.07,0.35,0.24c0,0.35,0,0.7,0,1.05s0,0.7,0,1.05c-0.23,0.05-0.46,0.09-0.69,0.13
               C19.66,24.75,19.66,24.39,19.66,24.04z"/>
           <path fill="#56565A" d="M30.27,25.61c4.04,0,8.1,0.3,10.95,0.92c0.92,0.2,1.73,0.43,2.38,0.7c-0.02-0.02-0.05-0.04-0.07-0.05
               l-0.22-0.15l-0.01-0.18c-0.68-0.42-1.79-0.76-3.17-1.04C37.49,25.27,33.88,25,30.27,25c-3.61,0-7.22,0.27-9.86,0.81
               c-1.42,0.29-2.55,0.65-3.22,1.08l-0.01,0.14l-0.22,0.15c-0.04,0.03-0.08,0.06-0.12,0.1c0.66-0.29,1.5-0.54,2.48-0.74
               C22.17,25.92,26.23,25.61,30.27,25.61z"/>
           <path fill="#56565A" d="M32.19,6.55c-0.07-0.03-0.15-0.06-0.23-0.08l-0.16-0.04l-0.12-0.09c-0.27-0.22-1.08-0.26-1.43-0.26
               c-0.36,0-1.16,0.05-1.43,0.26l-0.12,0.09l-0.16,0.04c-0.08,0.02-0.16,0.04-0.23,0.08c-0.16,0.08-0.26,0.18-0.25,0.33
               c0.01,0.11,0.05,0.28,0.15,0.36c0,0,0,0,0.01,0l0.2,0.15v0.22c0,0.05,0.01,0.14,0.05,0.18l0.13,0.14v0.18
               c0,0.27,0.01,0.55,0.01,0.82c0,0.31,0.01,0.62-0.01,0.94c-0.01,0.11-0.03,0.23-0.08,0.33c0.54-0.12,1.15-0.18,1.74-0.18
               c0.6,0,1.2,0.06,1.74,0.18c-0.05-0.1-0.08-0.22-0.08-0.33c-0.01-0.31-0.01-0.62-0.01-0.94c0-0.27,0-0.55,0.01-0.82V7.94l0.13-0.14
               c0.04-0.04,0.05-0.13,0.05-0.18V7.39l0.2-0.15l0,0c0.1-0.08,0.13-0.25,0.15-0.36C32.45,6.72,32.35,6.62,32.19,6.55z M29.18,8.58
               c0,0.39,0,0.78,0,1.16c0,0.08-0.08,0.16-0.18,0.18c-0.1,0.02-0.18-0.04-0.18-0.12c0-0.39,0-0.77,0-1.16c0-0.39,0-0.77,0-1.16
               c0-0.08,0.08-0.16,0.18-0.19c0.1-0.02,0.18,0.04,0.18,0.12C29.18,7.8,29.18,8.19,29.18,8.58z M29.82,8.52c0,0.38,0,0.77,0,1.15
               c0,0.09-0.09,0.18-0.2,0.18c-0.11,0.01-0.2-0.05-0.2-0.15c0-0.38,0-0.77,0-1.15s0-0.77,0-1.15c0-0.09,0.09-0.18,0.2-0.19
               c0.11-0.01,0.2,0.06,0.2,0.15C29.82,7.75,29.82,8.13,29.82,8.52z M30.47,8.51c0,0.37,0,0.75,0,1.13c0,0.11-0.11,0.19-0.23,0.18
               l0,0c-0.13,0-0.23-0.08-0.23-0.18c0-0.37,0-0.75,0-1.13c0-0.37,0-0.75,0-1.13c0-0.11,0.11-0.19,0.23-0.19l0,0
               c0.13,0,0.23,0.09,0.23,0.19C30.47,7.76,30.47,8.13,30.47,8.51z M31.07,8.55c0,0.38,0,0.76,0,1.15c0,0.09-0.09,0.16-0.2,0.15
               c-0.11-0.01-0.2-0.09-0.2-0.18c0-0.38,0-0.77,0-1.15s0-0.77,0-1.15c0-0.09,0.09-0.16,0.2-0.15c0.11,0.01,0.2,0.1,0.2,0.19
               C31.07,7.79,31.07,8.17,31.07,8.55z M31.67,8.64c0,0.39,0,0.77,0,1.16c0,0.08-0.08,0.13-0.18,0.12c-0.1-0.02-0.18-0.09-0.18-0.18
               c0-0.39,0-0.78,0-1.16c0-0.39,0-0.78,0-1.16c0-0.08,0.08-0.13,0.18-0.12c0.1,0.02,0.18,0.11,0.18,0.19
               C31.67,7.87,31.67,8.25,31.67,8.64z"/>
           <path fill="#56565A" d="M33.61,12.4l-0.12-0.57c-0.23-0.12-0.49-0.25-0.77-0.31l-0.64-0.14c-1.2-0.08-2.53-0.08-3.72,0.01
               l-0.19,0.04v0.01c0,0-0.01,0-0.04,0l-0.39,0.08c-0.27,0.06-0.53,0.19-0.77,0.31l-0.12,0.59C28.83,12.15,31.63,12.14,33.61,12.4z"
               />
           <path fill="#56565A" d="M30.27,18.75c2.67,0,5.34,0.19,7.51,0.58c0.66,0.12,1.27,0.25,1.82,0.4c-0.11-0.22-0.18-0.47-0.21-0.69
               c-0.04-0.25-0.11-0.5-0.18-0.74c-0.13-0.41-0.29-0.81-0.47-1.21c-0.49-1.01-1.18-1.99-2.13-2.77c-0.61-0.5-1.4-1.09-2.18-1.4
               c-0.12-0.05-0.24-0.09-0.36-0.12l-0.39-0.09l-0.04-0.16c-1.99-0.33-4.83-0.33-6.81,0.01l-0.04,0.16l-0.39,0.09
               c-0.12,0.03-0.25,0.07-0.36,0.12c-0.78,0.32-1.56,0.91-2.18,1.4c-0.95,0.77-1.64,1.75-2.13,2.77c-0.19,0.39-0.35,0.8-0.47,1.21
               c-0.08,0.24-0.15,0.49-0.18,0.74c-0.04,0.23-0.11,0.48-0.22,0.71c0.57-0.16,1.21-0.3,1.88-0.42
               C24.93,18.94,27.6,18.75,30.27,18.75z M38.69,18.28c0.01,0.03,0.01,0.05,0.02,0.08c0.02,0.11-0.02,0.18-0.08,0.16
               c-0.05-0.02-0.11-0.11-0.12-0.22c-0.01-0.03-0.01-0.05-0.02-0.08c0.04,0.05,0.08,0.09,0.11,0.11
               C38.64,18.34,38.67,18.32,38.69,18.28z M38.44,17.16c0.04,0.12,0.07,0.23,0.1,0.35c0.03,0.12,0.06,0.23,0.09,0.35
               c0.03,0.13-0.01,0.23-0.08,0.2c-0.07-0.02-0.15-0.15-0.18-0.28c-0.02-0.11-0.05-0.23-0.08-0.34c-0.03-0.11-0.06-0.23-0.1-0.34
               c-0.04-0.13-0.02-0.23,0.05-0.2C38.31,16.89,38.4,17.02,38.44,17.16z M38.07,16.4c0.05,0.02,0.13,0.11,0.16,0.22
               c0.01,0.03,0.02,0.05,0.03,0.08c-0.04-0.05-0.09-0.09-0.12-0.11c-0.04-0.01-0.06,0.01-0.07,0.05c-0.01-0.03-0.02-0.05-0.03-0.08
               C38,16.46,38.01,16.39,38.07,16.4z M23.48,17.9c0.01,0.11-0.05,0.2-0.12,0.22c-0.07,0.02-0.13-0.05-0.13-0.16
               c0-0.03,0-0.06,0-0.08c0.04,0.04,0.08,0.06,0.12,0.05c0.05-0.01,0.09-0.05,0.12-0.11C23.47,17.85,23.48,17.88,23.48,17.9z
                M23.74,16.68c-0.04,0.11-0.06,0.23-0.1,0.34c-0.03,0.11-0.05,0.23-0.08,0.34c-0.02,0.13-0.11,0.26-0.2,0.28
               c-0.09,0.02-0.15-0.07-0.12-0.2c0.02-0.11,0.05-0.23,0.08-0.34c0.03-0.11,0.06-0.23,0.1-0.34c0.04-0.13,0.14-0.26,0.23-0.28
               C23.74,16.46,23.77,16.55,23.74,16.68z M23.85,16.17c-0.01,0.03-0.01,0.05-0.02,0.08c-0.02-0.04-0.05-0.06-0.1-0.05
               c-0.05,0.01-0.09,0.05-0.14,0.11c0.01-0.03,0.01-0.05,0.02-0.08c0.03-0.11,0.11-0.2,0.17-0.22
               C23.85,15.99,23.88,16.06,23.85,16.17z M24.92,17.6c0.01,0.11-0.06,0.2-0.13,0.22c-0.08,0.02-0.15-0.05-0.16-0.16
               c0-0.03,0-0.06,0-0.08c0.04,0.04,0.09,0.06,0.15,0.05c0.06-0.01,0.11-0.05,0.15-0.11C24.92,17.54,24.92,17.57,24.92,17.6z
                M25.14,16.37c-0.03,0.12-0.05,0.23-0.08,0.35c-0.02,0.11-0.04,0.23-0.06,0.34c-0.02,0.13-0.12,0.26-0.22,0.28
               c-0.11,0.02-0.18-0.07-0.16-0.2c0.02-0.11,0.04-0.23,0.06-0.34c0.02-0.12,0.05-0.23,0.08-0.34c0.04-0.13,0.14-0.26,0.25-0.28
               C25.12,16.15,25.17,16.24,25.14,16.37z M25.23,15.85c-0.01,0.03-0.01,0.05-0.02,0.08c-0.02-0.04-0.07-0.06-0.12-0.05
               c-0.05,0.01-0.11,0.05-0.15,0.11c0.01-0.03,0.01-0.05,0.02-0.08c0.02-0.11,0.1-0.2,0.18-0.22C25.2,15.68,25.24,15.75,25.23,15.85z
                M26.18,17.59c-0.09,0.01-0.17-0.06-0.18-0.16c0-0.03,0-0.06,0-0.08c0.05,0.04,0.11,0.06,0.17,0.05c0.06-0.01,0.12-0.05,0.16-0.1
               c0,0.03,0,0.06,0.01,0.08C26.34,17.48,26.27,17.57,26.18,17.59z M26.51,16.15c-0.02,0.12-0.04,0.23-0.06,0.35
               c-0.02,0.11-0.04,0.23-0.05,0.35c-0.01,0.13-0.12,0.26-0.24,0.27c-0.12,0.02-0.21-0.08-0.19-0.22c0.02-0.12,0.03-0.23,0.05-0.35
               c0.02-0.12,0.04-0.23,0.06-0.35c0.03-0.13,0.14-0.26,0.26-0.27C26.47,15.92,26.54,16.02,26.51,16.15z M26.56,15.63
               c-0.01,0.03-0.01,0.06-0.01,0.08c-0.04-0.04-0.09-0.06-0.15-0.05c-0.06,0.01-0.12,0.05-0.17,0.1c0.01-0.03,0.01-0.06,0.01-0.08
               c0.02-0.11,0.1-0.2,0.19-0.21C26.51,15.46,26.57,15.53,26.56,15.63z M27.54,17.43c-0.11,0.01-0.19-0.06-0.2-0.17
               c0-0.03-0.01-0.06-0.01-0.08c0.05,0.04,0.12,0.06,0.19,0.06c0.07-0.01,0.14-0.04,0.19-0.09c0,0.03,0.01,0.06,0.01,0.08
               C27.73,17.32,27.65,17.42,27.54,17.43z M27.86,16c-0.02,0.12-0.03,0.23-0.04,0.35c-0.01,0.12-0.02,0.23-0.04,0.35
               c-0.01,0.13-0.12,0.26-0.26,0.27c-0.13,0.01-0.25-0.09-0.23-0.22c0.01-0.12,0.02-0.23,0.04-0.35c0.01-0.12,0.03-0.23,0.05-0.35
               c0.02-0.13,0.14-0.26,0.27-0.27C27.78,15.77,27.88,15.87,27.86,16z M27.86,15.56c-0.04-0.04-0.11-0.06-0.18-0.06
               c-0.07,0.01-0.13,0.04-0.19,0.09c0.01-0.03,0.01-0.05,0.01-0.08c0.01-0.11,0.1-0.2,0.19-0.2c0.1-0.01,0.17,0.07,0.16,0.17
               C27.86,15.5,27.86,15.53,27.86,15.56z M28.9,17.33c-0.12,0.01-0.22-0.07-0.23-0.18c0-0.03-0.01-0.06-0.01-0.08
               c0.06,0.05,0.13,0.07,0.22,0.06c0.08-0.01,0.16-0.04,0.21-0.09c0,0.03,0.01,0.05,0.01,0.08C29.1,17.23,29.02,17.32,28.9,17.33z
                M29.17,16.26c-0.01,0.12-0.01,0.23-0.02,0.35c0,0.13-0.13,0.25-0.28,0.26c-0.15,0.01-0.27-0.09-0.27-0.23
               c0.01-0.12,0.02-0.23,0.02-0.35c0.01-0.12,0.02-0.23,0.03-0.35c0.01-0.13,0.14-0.25,0.29-0.26s0.26,0.09,0.25,0.23
               C29.19,16.02,29.18,16.14,29.17,16.26z M28.75,15.49c0-0.03,0-0.05,0.01-0.08c0.01-0.11,0.1-0.19,0.21-0.2
               c0.11-0.01,0.2,0.08,0.19,0.18c0,0.03,0,0.06,0,0.08c-0.05-0.05-0.12-0.07-0.2-0.06C28.88,15.41,28.81,15.44,28.75,15.49z
                M30.24,17.29L30.24,17.29c-0.13,0.01-0.25-0.08-0.26-0.18c0-0.03-0.01-0.05-0.01-0.08c0.06,0.05,0.15,0.08,0.25,0.07l0,0
               c0.09,0,0.18-0.03,0.23-0.08c0,0.03,0.01,0.06,0.01,0.08C30.47,17.21,30.37,17.29,30.24,17.29z M30.52,16.24c0,0.12,0,0.23,0,0.35
               c0,0.13-0.13,0.24-0.3,0.24l0,0c-0.17,0.01-0.31-0.11-0.31-0.24c0-0.12,0.01-0.23,0.01-0.35c0.01-0.12,0.01-0.23,0.01-0.35
               c0.01-0.13,0.14-0.25,0.3-0.25l0,0c0.16,0,0.29,0.12,0.29,0.25C30.52,16.01,30.52,16.12,30.52,16.24z M30,15.45
               c0-0.03,0-0.05,0-0.08c0-0.11,0.1-0.19,0.22-0.19l0,0c0.12,0,0.22,0.09,0.23,0.19c0,0.03,0,0.06,0.01,0.08
               c-0.06-0.05-0.14-0.08-0.22-0.08l0,0C30.14,15.37,30.06,15.4,30,15.45z M31.58,17.32c-0.12-0.01-0.22-0.09-0.23-0.2
               c0-0.03-0.01-0.05-0.01-0.08c0.06,0.05,0.14,0.08,0.22,0.09c0.08,0.01,0.16-0.02,0.2-0.06c0.01,0.03,0.01,0.05,0.01,0.08
               C31.79,17.25,31.71,17.33,31.58,17.32z M31.55,16.85c-0.15-0.01-0.29-0.12-0.29-0.26c0-0.11-0.01-0.23-0.01-0.34
               c0-0.11-0.01-0.23-0.01-0.34c-0.01-0.13,0.11-0.24,0.26-0.23c0.15,0.01,0.27,0.12,0.28,0.26c0.01,0.12,0.01,0.23,0.01,0.34
               c0.01,0.11,0.01,0.23,0.01,0.34C31.82,16.75,31.7,16.86,31.55,16.85z M31.29,15.39c-0.01-0.11,0.08-0.18,0.19-0.18
               c0.11,0.01,0.21,0.1,0.22,0.2c0,0.03,0.01,0.05,0.01,0.08c-0.06-0.05-0.13-0.08-0.21-0.09c-0.08-0.01-0.15,0.02-0.2,0.06
               C31.29,15.44,31.29,15.41,31.29,15.39z M32.94,17.41c-0.11-0.01-0.2-0.1-0.21-0.2c0-0.03-0.01-0.05-0.01-0.08
               c0.05,0.05,0.12,0.09,0.2,0.09c0.08,0.01,0.14-0.02,0.18-0.06c0.01,0.03,0.01,0.05,0.01,0.08C33.12,17.34,33.05,17.42,32.94,17.41
               z M32.89,16.94c-0.13-0.01-0.26-0.13-0.26-0.26c-0.01-0.11-0.02-0.23-0.02-0.34c-0.01-0.11-0.01-0.23-0.02-0.34
               c-0.01-0.13,0.09-0.23,0.22-0.22c0.13,0.01,0.25,0.13,0.26,0.26c0.01,0.11,0.02,0.23,0.03,0.34c0.01,0.11,0.02,0.23,0.03,0.34
               C33.13,16.85,33.03,16.95,32.89,16.94z M32.74,15.3c0.1,0.01,0.19,0.1,0.2,0.2c0.01,0.03,0.01,0.05,0.01,0.08
               c-0.05-0.05-0.12-0.09-0.19-0.09c-0.07-0.01-0.13,0.02-0.17,0.06c-0.01-0.03-0.01-0.05-0.01-0.08
               C32.57,15.37,32.64,15.3,32.74,15.3z M33.89,15.63c-0.02-0.1,0.04-0.18,0.12-0.16s0.18,0.11,0.2,0.21
               c0.01,0.03,0.01,0.05,0.02,0.08c-0.05-0.05-0.11-0.09-0.18-0.1c-0.06-0.01-0.11,0.01-0.15,0.05
               C33.91,15.68,33.9,15.66,33.89,15.63z M34.01,16.82c-0.01-0.11-0.02-0.23-0.04-0.34c-0.01-0.11-0.03-0.23-0.04-0.34
               c-0.02-0.13,0.06-0.23,0.18-0.22c0.12,0.02,0.23,0.13,0.25,0.27c0.02,0.11,0.04,0.23,0.05,0.34c0.02,0.11,0.04,0.23,0.04,0.34
               c0.02,0.13-0.07,0.23-0.19,0.22C34.13,17.08,34.02,16.96,34.01,16.82z M34.31,17.56c-0.09-0.01-0.18-0.11-0.19-0.2
               c0-0.03-0.01-0.05-0.01-0.08c0.05,0.05,0.11,0.09,0.18,0.1c0.06,0.01,0.12-0.01,0.16-0.05c0.01,0.03,0.01,0.05,0.01,0.08
               C34.47,17.5,34.4,17.57,34.31,17.56z M35.25,15.94c-0.01-0.03-0.01-0.05-0.02-0.08c-0.02-0.1,0.02-0.18,0.09-0.16
               c0.08,0.02,0.16,0.12,0.19,0.22c0.01,0.03,0.01,0.05,0.02,0.08c-0.05-0.05-0.11-0.09-0.16-0.11
               C35.32,15.88,35.28,15.89,35.25,15.94z M35.37,16.71c-0.02-0.11-0.04-0.23-0.06-0.34c-0.02-0.13,0.04-0.23,0.13-0.2
               c0.1,0.02,0.2,0.15,0.23,0.28c0.02,0.11,0.05,0.23,0.06,0.34c0.02,0.11,0.04,0.22,0.06,0.34c0.02,0.13-0.05,0.22-0.15,0.2
               c-0.11-0.02-0.2-0.14-0.22-0.27C35.4,16.93,35.39,16.82,35.37,16.71z M35.7,17.78c-0.08-0.01-0.15-0.11-0.17-0.21
               c-0.01-0.03-0.01-0.05-0.01-0.08c0.05,0.05,0.1,0.09,0.16,0.1c0.06,0.01,0.11-0.01,0.13-0.05c0.01,0.03,0.01,0.05,0.01,0.08
               C35.84,17.73,35.78,17.8,35.7,17.78z M36.64,16.25c-0.01-0.03-0.02-0.05-0.02-0.08c-0.04-0.1-0.01-0.17,0.06-0.16
               c0.06,0.02,0.14,0.11,0.18,0.22c0.01,0.03,0.02,0.05,0.02,0.08c-0.05-0.05-0.1-0.09-0.14-0.11
               C36.69,16.19,36.66,16.21,36.64,16.25z M36.87,17.35c-0.02-0.11-0.04-0.22-0.06-0.34c-0.02-0.11-0.05-0.23-0.08-0.34
               c-0.04-0.13,0.01-0.22,0.09-0.2c0.09,0.02,0.19,0.15,0.22,0.28c0.03,0.11,0.06,0.23,0.08,0.34c0.02,0.11,0.05,0.23,0.07,0.34
               c0.02,0.13-0.03,0.22-0.12,0.2C36.98,17.61,36.89,17.49,36.87,17.35z M37.14,18.1c-0.07-0.02-0.13-0.12-0.15-0.22
               c-0.01-0.03-0.01-0.05-0.01-0.08c0.04,0.05,0.09,0.09,0.14,0.11c0.05,0.01,0.09-0.01,0.11-0.05c0.01,0.03,0.01,0.05,0.01,0.08
               C37.25,18.05,37.21,18.12,37.14,18.1z M26.93,12.81c2.15-0.49,4.49-0.49,6.65,0l-0.03,0.01c-2.15-0.43-4.49-0.43-6.65,0
               L26.93,12.81z M26.34,13.24c2.53-0.6,5.29-0.6,7.84,0c-0.01,0.01-0.02,0.01-0.04,0.01c-2.54-0.54-5.3-0.54-7.84,0
               C26.31,13.26,26.33,13.25,26.34,13.24z M25.75,13.69c2.92-0.73,6.1-0.73,9.03,0c-0.01,0.01-0.03,0.01-0.04,0.01
               c-2.93-0.65-6.11-0.65-9.03,0C25.72,13.69,25.73,13.69,25.75,13.69z M25.16,14.13c3.31-0.84,6.9-0.84,10.22,0
               c-0.02,0.01-0.04,0.01-0.05,0.01c-3.31-0.76-6.91-0.76-10.22,0C25.12,14.14,25.14,14.13,25.16,14.13z M24.56,14.57
               c3.69-0.97,7.7-0.97,11.41,0c-0.02,0.01-0.04,0.01-0.05,0.02c-3.7-0.87-7.72-0.87-11.41,0C24.52,14.58,24.54,14.58,24.56,14.57z
                M23.97,15.01c4.07-1.08,8.51-1.08,12.61,0c-0.02,0.01-0.04,0.01-0.06,0.02c-4.08-0.97-8.52-0.97-12.6,0
               C23.93,15.02,23.95,15.02,23.97,15.01z M23.38,15.46c4.46-1.21,9.31-1.21,13.79,0c-0.02,0.01-0.05,0.01-0.06,0.02
               c-4.47-1.08-9.32-1.08-13.79,0C23.33,15.47,23.35,15.46,23.38,15.46z M21.97,18.3c0,0.11-0.04,0.2-0.09,0.22
               c-0.05,0.02-0.11-0.05-0.11-0.16c0-0.03,0-0.05,0-0.08c0.02,0.04,0.06,0.06,0.1,0.05c0.04-0.01,0.08-0.05,0.1-0.11
               C21.97,18.25,21.97,18.28,21.97,18.3z M22.28,17.08c-0.04,0.11-0.08,0.23-0.11,0.35c-0.04,0.11-0.06,0.23-0.09,0.35
               c-0.03,0.13-0.11,0.26-0.18,0.28c-0.07,0.02-0.11-0.08-0.08-0.21c0.03-0.12,0.06-0.23,0.09-0.35s0.08-0.23,0.12-0.35
               c0.05-0.13,0.14-0.26,0.21-0.28C22.31,16.85,22.33,16.95,22.28,17.08z M22.43,16.57c-0.01,0.03-0.02,0.05-0.02,0.08
               c-0.01-0.04-0.04-0.06-0.07-0.05c-0.04,0.01-0.08,0.05-0.12,0.11c0.01-0.03,0.02-0.05,0.03-0.08c0.04-0.11,0.11-0.2,0.15-0.22
               C22.45,16.39,22.47,16.46,22.43,16.57z M22.79,15.89c4.84-1.32,10.12-1.32,14.99,0l-0.07,0.02c-4.86-1.19-10.13-1.19-14.98,0
               L22.79,15.89z"/>
           <path fill="#56565A" d="M32.23,10.44c-0.6-0.16-1.29-0.25-1.99-0.25c-0.7,0-1.39,0.08-1.99,0.25l-0.01,0.01
               c-0.05,0.02-0.17,0.11-0.19,0.15c0.02,0.04,0.05,0.09,0.08,0.12l0.39,0.5c1.11-0.09,2.32-0.09,3.43-0.01l0.39-0.5
               c0.03-0.04,0.06-0.08,0.08-0.12C32.4,10.55,32.28,10.47,32.23,10.44L32.23,10.44z"/>
           <path fill="#56565A" d="M28.47,6.3l0.11-0.02l0.08-0.06c0.33-0.26,1.14-0.32,1.59-0.32c0.44,0,1.26,0.06,1.59,0.32l0.08,0.06
               l0.11,0.02c0.09,0.02,0.19,0.05,0.27,0.09c0.08,0.04,0.15,0.08,0.21,0.13c-0.25-0.57-1.16-0.99-2.26-0.99
               c-1.1,0-2.02,0.43-2.26,0.99c0.06-0.05,0.13-0.09,0.21-0.13C28.27,6.35,28.37,6.32,28.47,6.3z"/>
           <path fill="#56565A" d="M30.27,20.29c3.04,0,6.07,0.22,8.42,0.67c0.81,0.15,1.54,0.34,2.16,0.55l-0.01-0.3
               c-0.01-0.15-0.04-0.32-0.07-0.46c-0.02-0.08-0.08-0.15-0.16-0.22c-0.78-0.31-1.79-0.57-2.95-0.77c-2.14-0.38-4.76-0.57-7.39-0.57
               s-5.26,0.19-7.39,0.57c-1.21,0.22-2.26,0.49-3.05,0.81c-0.06,0.06-0.1,0.12-0.12,0.18c-0.04,0.15-0.07,0.31-0.08,0.46l-0.01,0.32
               l-0.07,0.03c0.66-0.23,1.43-0.43,2.29-0.59C24.2,20.51,27.23,20.29,30.27,20.29z"/>
       </g>
   </g>
   </svg>